<svg width="127" height="24" viewBox="0 0 127 24" fill="none" xmlns="http://www.w3.org/2000/svg">
    <path fill-rule="evenodd" clip-rule="evenodd"
        d="M1.33343 4.98657L14.1067 12.1498C14.1752 12.183 14.2437 12.2161 14.3464 12.2161C14.5176 12.2161 14.6889 12.1166 14.7574 11.9508C14.8258 11.785 14.7916 11.586 14.6546 11.4865L3.59358 1.73659C3.52509 1.67026 3.42236 1.6371 3.28538 1.6371C3.1484 1.6371 3.01142 1.70343 2.94293 1.83608L1.16221 4.38963C1.09372 4.48912 1.09372 4.62178 1.12796 4.72126C1.12796 4.85392 1.2307 4.95341 1.33343 4.98657ZM19.795 14.1042L18.4252 11.3185C18.3567 11.1526 18.1855 11.0863 18.0143 11.0863C17.9458 11.0863 17.843 11.1195 17.7745 11.1526L5.03551 18.3159C4.86429 18.4154 4.76156 18.6143 4.83005 18.7801C4.86429 18.9791 5.03551 19.1118 5.24098 19.1118C5.27523 19.1118 5.34372 19.1118 5.37796 19.0786L19.521 14.7011C19.7607 14.6348 19.8977 14.3695 19.795 14.1705C19.8161 14.15 19.8112 14.1422 19.8042 14.1313C19.8 14.1247 19.795 14.1168 19.795 14.1042ZM3.219 7.50584C3.28749 7.30686 3.45871 7.17421 3.66418 7.17421C3.9039 7.17421 4.10936 7.37319 4.10936 7.60533V21.9318C4.10936 22.1639 3.9039 22.3629 3.66418 22.3629H0.445181C0.308202 22.3629 0.171224 22.2966 0.102734 22.1971C0 22.0976 0 21.9649 0 21.8323L3.219 7.50584Z"
        fill="white" />
    <path fill-rule="evenodd" clip-rule="evenodd"
        d="M48.4022 13.155H53.6219C53.737 13.1165 53.8138 13.1934 53.7754 13.3859L54.543 15.195C54.7733 15.6953 54.8884 15.9648 54.8884 16.0417C54.9268 16.1572 54.9652 16.3112 54.9652 16.4651C54.9652 16.6961 54.85 16.8885 54.6965 17.004C54.3127 17.235 53.8521 17.3119 53.43 17.2734H53.1229V17.4659C53.1229 17.6199 53.2381 17.6968 53.3532 17.6968H60.4535C60.5687 17.6968 60.6838 17.5814 60.6838 17.4659C60.6838 17.3504 60.6071 17.235 60.4919 17.235C60.1465 17.1965 59.8395 17.081 59.5708 16.8501C59.2254 16.5036 58.8032 15.7723 58.2659 14.5406L52.6624 1.72325H52.4321L46.867 14.1942C46.5215 15.041 46.061 15.8108 45.5237 16.5421C45.2166 16.8885 44.7944 17.1195 44.3339 17.1965C44.2187 17.235 44.142 17.3119 44.142 17.4274C44.142 17.5814 44.2571 17.6584 44.3723 17.6584H49.093C49.2082 17.6584 49.3233 17.5429 49.3233 17.4274C49.3233 17.3119 49.2465 17.1965 49.1314 17.1965C48.7092 17.158 48.2486 17.081 47.8265 16.927C47.481 16.7346 47.2508 16.3497 47.2891 15.9648C47.2891 15.5029 47.4043 15.0795 47.5962 14.6946L48.2103 13.3089C48.2486 13.1934 48.3254 13.155 48.4022 13.155ZM51.2423 7.38137L53.2381 12.0002C53.2764 12.0002 53.2764 12.0387 53.2381 12.1157C53.2381 12.2312 53.1229 12.3082 53.0078 12.3082H48.9779H48.9011C48.786 12.2312 48.7476 12.1157 48.786 12.0002L50.8201 7.38137L50.9353 7.26589C51.0504 7.2274 51.2039 7.2659 51.2423 7.38137ZM43.3351 1.95372H30.8999C30.7933 1.98934 30.7525 2.05792 30.6558 2.22046L30.6312 2.26164C30.6312 2.37712 30.7464 2.49259 30.8615 2.49259C31.7826 2.53108 32.3199 2.64655 32.627 2.91598C32.934 3.18542 33.0876 3.76278 33.0876 4.64806C33.0876 8.30466 32.6654 11.2299 31.8594 13.4239C31.0918 15.5409 29.7869 16.8111 27.983 17.2345C27.9062 17.2345 27.8295 17.3115 27.8295 17.4269V22.0458C27.8295 22.1998 27.9446 22.2767 28.0598 22.2767H28.0981C28.2133 22.2767 28.3284 22.1998 28.3284 22.0843C28.4436 20.8526 29.0193 19.6979 29.9788 18.8896C30.9383 18.0813 32.2048 17.6964 33.8168 17.6964H38.0386C39.5738 17.6964 40.802 18.1198 41.6847 18.9666C42.5291 19.7749 43.0664 20.8911 43.1432 22.0458C43.1815 22.1613 43.2583 22.2383 43.3734 22.2383C43.4886 22.2383 43.6037 22.1228 43.6037 22.0073V17.4269C43.6037 17.273 43.4886 17.196 43.3734 17.196C42.9513 17.196 42.5675 17.119 42.1837 16.965C41.915 16.8496 41.6463 16.6186 41.5312 16.3107C41.4161 15.8488 41.3393 15.3869 41.3777 14.925V4.45561C41.3777 3.64731 41.5312 3.06995 41.7615 2.839C41.9918 2.60806 42.5291 2.4541 43.3734 2.41561C43.4886 2.37712 43.5653 2.30014 43.5653 2.18466C43.5653 2.06919 43.4502 1.95372 43.3351 1.95372ZM34.3157 2.95448H37.8083C37.9235 2.99297 38.0002 3.06995 38.0002 3.18542V15.4254C38.0002 16.0028 37.9618 16.3107 37.8083 16.4262C37.6548 16.5416 37.2326 16.5801 36.465 16.5801H31.4372C31.3604 16.5801 31.3221 16.5416 31.2837 16.5032C31.2069 16.4262 31.2069 16.2722 31.2837 16.1952C31.8594 15.5409 32.32 14.7711 32.6654 13.9628C33.2027 12.6156 33.5481 11.1915 33.7016 9.76731C33.9703 7.95825 34.0854 6.14919 34.0854 4.30165V3.18542C34.0854 3.06995 34.2006 2.95448 34.3157 2.95448ZM67.6305 10.0752C67.5153 10.0752 67.4002 10.1907 67.4002 10.3062V14.925C67.3618 15.4254 67.4002 15.9258 67.5153 16.4262C67.6305 16.6571 67.8224 16.8496 68.0526 16.965C68.3597 17.119 68.7435 17.196 69.0889 17.196H69.3959C69.5111 17.196 69.5878 17.273 69.6262 17.3884C69.6262 17.5039 69.5495 17.5809 69.4343 17.6194H61.7199C61.6048 17.6194 61.4896 17.5424 61.4896 17.3884C61.4896 17.273 61.5664 17.1575 61.7199 17.1575H62.027C62.4108 17.1575 62.7946 17.0805 63.14 16.9266C63.3703 16.8111 63.5238 16.6186 63.6005 16.3877C63.7157 15.9258 63.7541 15.4254 63.7157 14.925V4.64806C63.7541 4.14768 63.7157 3.64731 63.6005 3.14693C63.4854 2.91598 63.3319 2.72353 63.1016 2.60806C62.7946 2.4541 62.4107 2.37712 62.0653 2.37712H61.7583C61.6432 2.37712 61.528 2.30014 61.528 2.18466C61.528 2.06919 61.6048 1.95372 61.7583 1.95372H69.3959C69.5111 1.95372 69.6262 2.0307 69.6262 2.14617C69.6262 2.26164 69.5495 2.37712 69.3959 2.37712H69.0889C68.7051 2.37712 68.3213 2.4541 68.0143 2.60806C67.784 2.72353 67.6305 2.91598 67.5537 3.14693C67.4386 3.60881 67.4002 4.10919 67.4386 4.60957V8.80504C67.4386 8.92051 67.5153 9.03599 67.6688 9.03599H72.735C72.8502 9.03599 72.9653 8.959 72.9653 8.84353V4.64806C73.0037 4.14768 72.9653 3.64731 72.8502 3.14693C72.735 2.91598 72.5431 2.72353 72.3512 2.60806C72.0442 2.4541 71.6604 2.37712 71.315 2.37712H70.9312C70.816 2.37712 70.7009 2.30014 70.7009 2.18466C70.7009 2.06919 70.7776 1.95372 70.9312 1.95372H78.6456C78.7607 1.95372 78.8758 2.06919 78.8758 2.18466C78.8758 2.30014 78.7607 2.41561 78.6456 2.41561H78.3385C77.9547 2.37712 77.5709 2.49259 77.2639 2.64655C77.0336 2.76202 76.8801 2.95447 76.8033 3.18542C76.6882 3.64731 76.6498 4.14768 76.6882 4.64806V14.925C76.6498 15.4254 76.6882 15.9258 76.8033 16.4262C76.9185 16.6571 77.1104 16.8496 77.3406 16.965C77.6477 17.119 78.0315 17.196 78.3769 17.196H78.6839C78.7991 17.196 78.9142 17.273 78.9142 17.3884C78.9142 17.5039 78.8375 17.6194 78.7223 17.6194H70.9312C70.816 17.6194 70.7009 17.5424 70.7009 17.3884C70.7009 17.273 70.7776 17.1575 70.9312 17.1575H71.2382C71.622 17.1575 72.0058 17.0805 72.3512 16.9266C72.5815 16.8111 72.735 16.6186 72.8118 16.3877C72.9269 15.9258 72.9653 15.4254 72.9269 14.925V10.3062C72.9269 10.1907 72.8502 10.0752 72.735 10.0752H67.6305ZM79.9894 17.1589C79.8359 17.1589 79.7592 17.2743 79.7592 17.3898C79.7592 17.5053 79.8359 17.5823 79.9894 17.6593H91.35C94.1517 17.6593 95.8405 19.1219 96.4545 22.0472C96.4545 22.1242 96.5313 22.2011 96.6464 22.2011H96.7616C96.8767 22.2011 96.9535 22.0857 96.9535 21.9702V17.1974H96.6464C95.994 17.1974 95.5334 17.0434 95.3031 16.774C95.0729 16.5045 94.9577 15.8887 94.9577 14.9264V4.64944C94.9577 3.6102 95.1112 2.99435 95.3415 2.7634C95.6869 2.45548 96.1859 2.34001 96.6464 2.3785H96.9535V2.14755C96.9919 2.03208 96.8767 1.91661 96.7616 1.91661H89.2774C89.1623 1.91661 89.0855 2.03208 89.0855 2.14755C89.0855 2.30152 89.1623 2.3785 89.2774 2.3785H89.5845C90.2753 2.3785 90.7359 2.53246 90.9278 2.80189C91.1197 3.07133 91.2348 3.68718 91.2348 4.61095V15.1574C91.2348 15.9272 91.1965 16.3506 91.0429 16.466C90.8894 16.5815 90.3905 16.62 89.5461 16.62H87.2433C86.4757 16.62 86.0535 16.543 85.9 16.4276C85.7465 16.3121 85.7081 15.8502 85.7081 15.0804V4.68793C85.7081 3.64869 85.8232 3.07133 86.0919 2.80189C86.3605 2.53246 86.8595 2.41699 87.6271 2.41699H87.9341V2.18604C87.9341 2.07057 87.819 1.9551 87.7039 1.9551H79.9894C79.8359 1.9551 79.7592 2.07057 79.7592 2.18604C79.7592 2.30152 79.8743 2.3785 79.9894 2.3785H80.2581C80.9106 2.3785 81.3711 2.53246 81.6014 2.80189C81.8317 3.07133 81.9468 3.68718 81.9468 4.61095V14.8879C81.9468 15.7732 81.8317 16.3891 81.6398 16.697C81.4479 17.0049 80.9489 17.1589 80.1813 17.1589H79.9894ZM104.207 2.87749C104.091 2.87749 103.976 2.95447 103.976 3.10844V9.26693H104.283C105.281 9.26693 105.972 8.959 106.433 8.34315C106.932 7.57334 107.2 6.68806 107.277 5.80278C107.277 5.6873 107.392 5.61032 107.469 5.61032H107.507C107.622 5.61032 107.699 5.6873 107.699 5.84127V13.5009C107.699 13.6164 107.622 13.7318 107.507 13.7318H107.469C107.354 13.7318 107.277 13.6549 107.277 13.5394C107.2 12.8465 107.008 12.1537 106.701 11.5379C106.471 11.0375 106.126 10.6526 105.665 10.3832C105.204 10.1907 104.705 10.0752 104.168 10.0752C104.053 10.0752 103.938 10.1522 103.938 10.2677V14.4632C103.899 15.002 103.938 15.5409 104.053 16.0413C104.13 16.2337 104.283 16.4262 104.475 16.5032C104.782 16.6571 105.089 16.6956 105.435 16.6956H106.356C107.814 16.6956 108.966 16.3492 109.848 15.6949C110.77 14.925 111.422 13.9243 111.691 12.7696C111.729 12.6926 111.806 12.6156 111.883 12.6156C111.998 12.6156 112.113 12.6926 112.113 12.8081V12.8465L111.46 17.3884C111.46 17.5039 111.345 17.5809 111.269 17.5809H98.2192C98.1041 17.5809 97.9889 17.5039 97.9889 17.3884C97.9889 17.273 98.0657 17.1575 98.1808 17.1575H98.4879C98.8717 17.1575 99.2555 17.0805 99.5625 16.9265C99.7928 16.8111 99.9463 16.6186 100.023 16.3877C100.138 15.9258 100.177 15.4254 100.138 14.925V4.64806C100.138 4.22466 100.138 3.76278 100.1 3.33938C100.023 3.10844 99.8696 2.87749 99.6777 2.72353C99.3323 2.49259 98.9101 2.37712 98.4879 2.41561H98.1808C98.0657 2.41561 97.9506 2.33863 97.9506 2.18466C97.9506 2.06919 98.0657 1.95372 98.1808 1.95372H110.808C110.923 1.95372 111.038 2.06919 111.038 2.18466V6.38013C111.038 6.49561 110.961 6.61108 110.846 6.61108C110.731 6.61108 110.654 6.5341 110.654 6.45712C110.539 5.64881 110.232 4.879 109.733 4.18617C109.273 3.6473 108.697 3.2624 108.006 3.10844C107.2 2.91598 106.394 2.87749 105.588 2.91598H104.207V2.87749ZM119.597 10.731C119.597 10.577 119.712 10.5 119.827 10.5C121.017 10.5385 122.207 10.4615 123.32 10.1921C124.318 9.99963 125.239 9.49926 125.93 8.72944C126.582 7.99812 126.927 7.07435 126.889 6.11208C126.889 4.91888 126.352 3.80265 125.431 3.10982C124.471 2.30152 122.859 1.91661 120.633 1.91661H114.032C113.917 1.91661 113.801 2.03208 113.801 2.14755C113.763 2.26303 113.878 2.3785 113.993 2.3785C114.416 2.3785 114.838 2.41699 115.222 2.57095C115.452 2.68642 115.644 2.87888 115.759 3.10982C115.912 3.6102 115.951 4.14906 115.912 4.68793V14.8494C115.951 15.3883 115.912 15.9272 115.759 16.4276C115.644 16.6585 115.452 16.851 115.222 16.9664C114.799 17.1204 114.377 17.1974 113.955 17.1589C113.84 17.1589 113.763 17.2744 113.763 17.3898C113.763 17.5438 113.878 17.6208 113.993 17.6208H121.477C121.593 17.6208 121.708 17.5053 121.708 17.3898C121.746 17.2744 121.631 17.1589 121.516 17.1589C121.094 17.1589 120.671 17.1204 120.288 16.9664C120.057 16.851 119.866 16.6585 119.75 16.4276C119.597 15.9272 119.558 15.3883 119.597 14.8494V10.731ZM119.635 9.42227V3.07133C119.635 2.91737 119.712 2.84038 119.827 2.87888H120.096C121.094 2.87888 121.861 3.14831 122.36 3.68718C122.859 4.22605 123.128 5.07284 123.128 6.22756C123.128 7.38227 122.859 8.26756 122.36 8.80642C121.823 9.38378 121.017 9.69171 120.211 9.65322H119.827C119.712 9.61473 119.635 9.53775 119.635 9.42227Z"
        fill="white" />
</svg>
